<svg width="40" height="41" viewBox="0 0 40 41" fill="none" xmlns="http://www.w3.org/2000/svg">
<path d="M1.93776 20.2081C1.93776 18.1706 2.26766 16.2163 2.84498 14.4283C3.46353 12.5988 4.32951 10.894 5.44292 9.35546C6.59756 7.77539 7.99962 6.44479 9.56663 5.28053C11.1336 4.241 12.7831 3.28464 14.5976 2.74409C16.3295 2.20354 18.1439 2.03721 20.0409 2.03721C22.0615 2.03721 23.9996 2.24512 25.814 2.82725C27.6285 3.45096 29.3192 4.40733 30.8037 5.53001C32.3708 6.69428 33.7316 8.10803 34.845 9.68811C35.9171 11.2266 36.7831 12.9314 37.3604 14.7194C37.8965 16.4658 38.1027 18.2954 38.1027 20.2081C38.1027 22.2456 37.814 24.1583 37.1955 25.9879C36.5769 27.8174 35.7522 29.5638 34.6388 31.0607C33.4842 32.6408 32.0821 34.013 30.4738 35.1357C28.9481 36.2168 27.2573 37.0484 25.4429 37.6305C23.711 38.1711 21.8965 38.5037 19.9996 38.5037C17.979 38.5037 16.0409 38.1711 14.2677 37.5474C12.4532 36.9236 10.8037 36.0089 9.27797 34.8862C7.71096 33.7219 6.3089 32.3913 5.15426 30.7697C4.08209 29.2312 3.25735 27.5263 2.68003 25.6968C2.18518 23.992 1.93776 22.1208 1.93776 20.2081ZM1.52539 20.2081C1.52539 22.2456 1.85529 24.1583 2.43261 25.9879C3.05116 27.9006 3.91714 29.6886 5.07178 31.2686C6.22642 32.8487 7.62848 34.2209 9.19549 35.3852C10.7625 36.5078 12.4945 37.4226 14.3501 38.0463C16.1233 38.6285 18.0615 38.8364 19.9996 38.8364C22.0202 38.8364 23.9584 38.6285 25.7728 38.0048C27.6697 37.381 29.4429 36.4663 31.0099 35.302C32.5769 34.1377 33.8965 32.6824 35.0512 31.1023C36.1646 29.5222 36.9893 27.7758 37.6079 25.8631C38.1852 24.0751 38.4738 22.1624 38.4738 20.1665C38.4738 18.129 38.1852 16.2163 37.5666 14.3868C36.9481 12.474 36.1646 10.6445 35.0099 9.0644C33.8553 7.48432 32.4532 6.11215 30.8862 4.94788C29.3192 3.82519 27.5872 2.91041 25.6903 2.32828C23.9171 1.74614 21.979 1.45508 20.0409 1.45508C18.0202 1.45508 16.0821 1.78773 14.2677 2.41144C12.3708 3.03516 10.5976 3.90836 9.03054 5.07262C7.46353 6.23689 6.10271 7.65064 4.98931 9.2723C3.87591 10.8524 3.05116 12.6404 2.43261 14.5531C1.85529 16.3411 1.52539 18.2538 1.52539 20.2081Z" fill="white"/>
<path d="M4.0424 27.5265C3.91869 27.5681 3.83622 27.5265 3.75375 27.4018C3.71251 27.3186 3.75374 27.1939 3.87746 27.1523C4.00117 27.1107 4.12488 27.1523 4.16612 27.2771C4.20735 27.3602 4.12488 27.485 4.0424 27.5265Z" fill="white"/>
<path d="M5.27873 27.0275C5.15502 27.0691 5.07255 27.0275 4.99007 26.9028C4.94884 26.8196 4.99007 26.6949 5.11378 26.6533C5.2375 26.6117 5.36121 26.6533 5.40244 26.778C5.44368 26.8612 5.40244 26.9859 5.27873 27.0275Z" fill="white"/>
<path d="M6.55791 26.5282C6.4342 26.5698 6.35172 26.5282 6.26925 26.4035C6.22801 26.3203 6.26925 26.1956 6.39296 26.154C6.51667 26.1124 6.64038 26.154 6.68162 26.2788C6.72286 26.3619 6.64038 26.4867 6.55791 26.5282Z" fill="white"/>
<path d="M7.83537 26.0295C7.71166 26.0711 7.62919 26.0295 7.54671 25.9047C7.50548 25.8216 7.54671 25.6968 7.67043 25.6552C7.79414 25.6137 7.91785 25.6552 7.95908 25.78C8.00032 25.8216 7.91785 25.9463 7.83537 26.0295Z" fill="white"/>
<path d="M9.07366 25.4885C8.94994 25.53 8.86747 25.4885 8.785 25.3637C8.74376 25.2805 8.785 25.1558 8.90871 25.1142C9.03242 25.0726 9.15613 25.1142 9.19737 25.239C9.2386 25.3221 9.19737 25.4469 9.07366 25.4885Z" fill="white"/>
<path d="M10.351 24.9894C10.2273 25.031 10.1448 24.9894 10.0623 24.8647C10.0211 24.7815 10.0623 24.6568 10.1861 24.6152C10.3098 24.5736 10.4335 24.6152 10.4747 24.7399C10.5159 24.8231 10.4747 24.9478 10.351 24.9894Z" fill="white"/>
<path d="M11.6303 24.4494C11.5066 24.491 11.4241 24.4494 11.3416 24.3246C11.3004 24.2415 11.3416 24.1167 11.4653 24.0752C11.5891 24.0336 11.7128 24.0752 11.754 24.1999C11.7952 24.2831 11.754 24.4078 11.6303 24.4494Z" fill="white"/>
<path d="M12.9076 23.9504C12.7839 23.9919 12.7015 23.9504 12.619 23.8256C12.5777 23.7425 12.619 23.6177 12.7427 23.5761C12.8664 23.5346 12.9901 23.5761 13.0314 23.7009C13.0726 23.784 12.9901 23.9088 12.9076 23.9504Z" fill="white"/>
<path d="M14.1459 23.4513C14.0222 23.4929 13.9397 23.4513 13.8573 23.3266C13.816 23.2434 13.8573 23.1187 13.981 23.0771C14.1047 23.0355 14.2284 23.0771 14.2696 23.2019C14.3109 23.285 14.2696 23.4098 14.1459 23.4513Z" fill="white"/>
<path d="M12.784 36.3828C12.7427 36.5076 12.619 36.5492 12.5366 36.5076C12.4541 36.466 12.3716 36.3412 12.4541 36.2165C12.5366 36.0918 12.619 36.0502 12.7427 36.0918C12.8252 36.1333 12.8665 36.2581 12.784 36.3828Z" fill="white"/>
<path d="M13.3211 35.0938C13.2799 35.2185 13.1561 35.2601 13.0737 35.2185C12.9912 35.1769 12.9087 35.0522 12.9912 34.9274C13.0737 34.8027 13.1561 34.7611 13.2799 34.8027C13.3211 34.8443 13.4036 34.969 13.3211 35.0938Z" fill="white"/>
<path d="M13.8562 33.8057C13.815 33.9304 13.6913 33.972 13.6088 33.9304C13.5263 33.8888 13.4439 33.7641 13.5263 33.6394C13.5676 33.5146 13.6913 33.473 13.815 33.5146C13.8562 33.5978 13.8975 33.7225 13.8562 33.8057Z" fill="white"/>
<path d="M14.3914 32.5166C14.3502 32.6414 14.2265 32.6829 14.144 32.6414C14.0615 32.5998 13.979 32.475 14.0615 32.3503C14.144 32.2256 14.2265 32.184 14.3502 32.2256C14.3914 32.3087 14.4326 32.4335 14.3914 32.5166Z" fill="white"/>
<path d="M14.9283 31.2688C14.887 31.3936 14.7633 31.4351 14.6808 31.3936C14.5984 31.352 14.5159 31.2272 14.5984 31.1025C14.6396 30.9778 14.7633 30.9362 14.887 30.9778C14.9283 31.0193 14.9695 31.1441 14.9283 31.2688Z" fill="white"/>
<path d="M15.4637 29.9795C15.4224 30.1043 15.2987 30.1458 15.2162 30.1043C15.1338 30.0627 15.0513 29.9379 15.1338 29.8132C15.2162 29.6884 15.2987 29.6469 15.4224 29.6884C15.4637 29.73 15.5049 29.8548 15.4637 29.9795Z" fill="white"/>
<path d="M16.0008 28.6904C15.9595 28.8152 15.8358 28.8568 15.7534 28.8152C15.6709 28.7736 15.5884 28.6489 15.6709 28.5241C15.7121 28.3994 15.8358 28.3578 15.9595 28.3994C16.0008 28.441 16.042 28.5657 16.0008 28.6904Z" fill="white"/>
<path d="M16.5359 27.4014C16.4947 27.5261 16.371 27.5677 16.2885 27.5261C16.206 27.4845 16.1236 27.3598 16.206 27.2351C16.2885 27.1103 16.371 27.0687 16.4947 27.1103C16.5359 27.1519 16.5772 27.2766 16.5359 27.4014Z" fill="white"/>
<path d="M17.032 26.1543C16.9908 26.2791 16.8671 26.3206 16.7846 26.2791C16.7021 26.2375 16.6197 26.1127 16.7021 25.988C16.7846 25.8632 16.8671 25.8217 16.9908 25.8632C17.0733 25.9048 17.1145 26.0296 17.032 26.1543Z" fill="white"/>
<path d="M27.0522 36.3828C27.0934 36.5076 27.2171 36.5492 27.2996 36.5076C27.3821 36.466 27.4645 36.3412 27.3821 36.2165C27.2996 36.0918 27.2171 36.0502 27.0934 36.0918C27.0522 36.1333 27.0109 36.2581 27.0522 36.3828Z" fill="white"/>
<path d="M26.5151 35.0938C26.5563 35.2185 26.68 35.2601 26.7625 35.2185C26.845 35.1769 26.9274 35.0522 26.845 34.9274C26.7625 34.8027 26.68 34.7611 26.5563 34.8027C26.5151 34.8443 26.4738 34.969 26.5151 35.0938Z" fill="white"/>
<path d="M25.9799 33.8057C26.0211 33.9304 26.1449 33.972 26.2273 33.9304C26.3098 33.8888 26.3923 33.7641 26.3098 33.6394C26.2686 33.5146 26.1449 33.473 26.0211 33.5146C25.9799 33.5978 25.9387 33.7225 25.9799 33.8057Z" fill="white"/>
<path d="M25.4428 32.5166C25.484 32.6414 25.6077 32.6829 25.6902 32.6414C25.7727 32.5998 25.8552 32.475 25.7727 32.3503C25.6902 32.2256 25.6077 32.184 25.484 32.2256C25.4428 32.3087 25.4016 32.4335 25.4428 32.5166Z" fill="white"/>
<path d="M24.9076 31.2686C24.9489 31.3933 25.0726 31.4349 25.1551 31.3933C25.2375 31.3517 25.32 31.227 25.2375 31.1023C25.1963 30.9775 25.0726 30.9359 24.9489 30.9775C24.9076 31.0191 24.8664 31.1438 24.9076 31.2686Z" fill="white"/>
<path d="M24.3705 29.9795C24.4118 30.1043 24.5355 30.1458 24.618 30.1043C24.7004 30.0627 24.7829 29.9379 24.7004 29.8132C24.618 29.6884 24.5355 29.6469 24.4118 29.6884C24.3705 29.73 24.3293 29.8548 24.3705 29.9795Z" fill="white"/>
<path d="M23.8354 28.6904C23.8766 28.8152 24.0003 28.8568 24.0828 28.8152C24.1653 28.7736 24.2477 28.6489 24.1653 28.5241C24.124 28.3994 24.0003 28.3578 23.8766 28.3994C23.8354 28.441 23.7941 28.5657 23.8354 28.6904Z" fill="white"/>
<path d="M23.3399 27.4014C23.3812 27.5261 23.5049 27.5677 23.5873 27.5261C23.6698 27.4845 23.7523 27.3598 23.6698 27.2351C23.5873 27.1103 23.5049 27.0687 23.3812 27.1103C23.3399 27.1519 23.2574 27.2766 23.3399 27.4014Z" fill="white"/>
<path d="M22.8041 26.1543C22.8454 26.2791 22.9691 26.3206 23.0516 26.2791C23.134 26.2375 23.2165 26.1127 23.134 25.988C23.0516 25.8632 22.9691 25.8217 22.8454 25.8632C22.8041 25.9048 22.7629 26.0296 22.8041 26.1543Z" fill="white"/>
<path d="M36.0833 13.2643C36.207 13.2227 36.2482 13.098 36.207 13.0148C36.1658 12.9317 36.0421 12.8485 35.9183 12.9317C35.7946 13.0148 35.7534 13.098 35.7946 13.2227C35.8359 13.2643 35.9596 13.3475 36.0833 13.2643Z" fill="white"/>
<path d="M34.845 13.8053C34.9687 13.7637 35.01 13.639 34.9687 13.5558C34.9275 13.4727 34.8038 13.3895 34.6801 13.4727C34.5564 13.5558 34.5151 13.639 34.5564 13.7637C34.5976 13.8053 34.7213 13.8885 34.845 13.8053Z" fill="white"/>
<path d="M33.5657 14.3454C33.6894 14.3038 33.7307 14.179 33.6894 14.0959C33.6482 14.0127 33.5245 13.9296 33.4008 14.0127C33.2771 14.0959 33.2358 14.179 33.2771 14.3038C33.3595 14.3454 33.4832 14.3869 33.5657 14.3454Z" fill="white"/>
<path d="M32.3294 14.8864C32.4531 14.8448 32.4943 14.7201 32.4531 14.6369C32.4119 14.5537 32.2882 14.4706 32.1644 14.5537C32.0407 14.6369 31.9995 14.7201 32.0407 14.8448C32.082 14.8864 32.2057 14.928 32.3294 14.8864Z" fill="white"/>
<path d="M31.0501 15.4264C31.1738 15.3848 31.215 15.2601 31.1738 15.1769C31.1326 15.0938 31.0089 15.0106 30.8851 15.0938C30.7614 15.1769 30.7202 15.2601 30.7614 15.3848C30.8439 15.4264 30.9676 15.468 31.0501 15.4264Z" fill="white"/>
<path d="M29.8138 15.9674C29.9375 15.9259 29.9787 15.8011 29.9375 15.718C29.8962 15.6348 29.7725 15.5516 29.6488 15.6348C29.5251 15.718 29.4839 15.8011 29.5251 15.9259C29.5663 15.9674 29.6901 16.0506 29.8138 15.9674Z" fill="white"/>
<path d="M28.5364 16.5495C28.6601 16.5079 28.7014 16.3831 28.6601 16.3C28.6189 16.2168 28.4952 16.1337 28.3715 16.2168C28.2478 16.3 28.2065 16.3831 28.2478 16.5079C28.3302 16.5495 28.4539 16.591 28.5364 16.5495Z" fill="white"/>
<path d="M27.3001 17.0895C27.4238 17.0479 27.465 16.9232 27.4238 16.84C27.3826 16.7569 27.2589 16.6737 27.1351 16.7569C27.0114 16.84 26.9702 16.9232 27.0114 17.0479C27.0527 17.0895 27.1764 17.1311 27.3001 17.0895Z" fill="white"/>
<path d="M26.0618 17.5888C26.1855 17.5472 26.2268 17.4225 26.1855 17.3393C26.1443 17.2561 26.0206 17.173 25.8969 17.2561C25.7732 17.2977 25.7319 17.4225 25.7732 17.5472C25.8144 17.5888 25.9381 17.6304 26.0618 17.5888Z" fill="white"/>
<path d="M3.71144 13.1815C3.58773 13.14 3.54649 13.0152 3.58773 12.9321C3.62897 12.8489 3.75268 12.7657 3.87639 12.8489C4.0001 12.9321 4.04134 13.0152 4.0001 13.14C3.95886 13.1815 3.79392 13.2231 3.71144 13.1815Z" fill="white"/>
<path d="M4.94777 13.7226C4.82406 13.681 4.78282 13.5562 4.82406 13.4731C4.86529 13.3899 4.98901 13.3068 5.11272 13.3899C5.23643 13.4731 5.27767 13.5562 5.23643 13.681C5.19519 13.7226 5.07148 13.7641 4.94777 13.7226Z" fill="white"/>
<path d="M6.18605 14.2626C6.06234 14.221 6.0211 14.0963 6.06234 14.0131C6.10358 13.93 6.22729 13.8468 6.351 13.93C6.47471 14.0131 6.51595 14.0963 6.47471 14.221C6.43347 14.2626 6.30976 14.3042 6.18605 14.2626Z" fill="white"/>
<path d="M7.46339 14.8036C7.33968 14.762 7.29845 14.6373 7.33968 14.5541C7.38092 14.471 7.50463 14.3878 7.62834 14.471C7.75205 14.5541 7.79329 14.6373 7.75205 14.762C7.71082 14.8036 7.58711 14.8452 7.46339 14.8036Z" fill="white"/>
<path d="M8.70168 15.3437C8.57796 15.3021 8.53673 15.1773 8.57796 15.0942C8.6192 15.011 8.74291 14.9278 8.86662 15.011C8.99034 15.0942 9.03157 15.1773 8.99033 15.3021C8.9491 15.3437 8.82539 15.3852 8.70168 15.3437Z" fill="white"/>
<path d="M9.97902 15.8847C9.85531 15.8431 9.81407 15.7183 9.85531 15.6352C9.89654 15.552 10.0203 15.4689 10.144 15.552C10.2677 15.6352 10.3089 15.7183 10.2677 15.8431C10.2264 15.8847 10.1027 15.9263 9.97902 15.8847Z" fill="white"/>
<path d="M11.2564 16.4247C11.1327 16.3831 11.0914 16.2584 11.1327 16.1752C11.1739 16.0921 11.2976 16.0089 11.4213 16.0921C11.545 16.1752 11.5863 16.2584 11.545 16.3831C11.4625 16.4247 11.3388 16.4663 11.2564 16.4247Z" fill="white"/>
<path d="M12.4946 16.9657C12.3709 16.9241 12.3297 16.7994 12.3709 16.7162C12.4122 16.6331 12.5359 16.5499 12.6596 16.6331C12.7833 16.7162 12.8245 16.7994 12.7833 16.9241C12.7421 16.9657 12.6184 17.0073 12.4946 16.9657Z" fill="white"/>
<path d="M13.7329 17.5058C13.6092 17.4642 13.568 17.3394 13.6092 17.2563C13.6505 17.1731 13.7742 17.09 13.8979 17.1731C14.0216 17.2147 14.0628 17.3394 14.0216 17.4642C13.9803 17.5058 13.8566 17.5473 13.7329 17.5058Z" fill="white"/>
<path d="M22.8055 14.0957C22.7642 14.2205 22.6405 14.262 22.558 14.2205C22.4756 14.1789 22.3931 14.0541 22.4756 13.9294C22.5168 13.8047 22.6405 13.7631 22.7642 13.8047C22.8055 13.8462 22.8467 13.971 22.8055 14.0957Z" fill="white"/>
<path d="M23.3406 12.8067C23.2994 12.9314 23.1757 12.973 23.0932 12.9314C23.0107 12.8898 22.9283 12.7651 23.0107 12.6403C23.052 12.5156 23.1757 12.474 23.2994 12.5156C23.3406 12.5988 23.3819 12.7235 23.3406 12.8067Z" fill="white"/>
<path d="M23.8776 11.5596C23.8364 11.6843 23.7127 11.7259 23.6302 11.6843C23.5477 11.6428 23.4652 11.518 23.5477 11.3933C23.5889 11.2685 23.7127 11.2269 23.8364 11.2685C23.8776 11.3101 23.9188 11.4348 23.8776 11.5596Z" fill="white"/>
<path d="M24.4129 10.2705C24.3716 10.3953 24.2479 10.4369 24.1655 10.3953C24.083 10.3537 24.0005 10.2289 24.083 10.1042C24.1242 9.97946 24.2479 9.93788 24.3716 9.97946C24.4129 10.021 24.4541 10.1458 24.4129 10.2705Z" fill="white"/>
<path d="M24.95 9.02346C24.9088 9.1482 24.785 9.18978 24.7026 9.1482C24.6201 9.10662 24.5376 8.98188 24.6201 8.85713C24.6613 8.73239 24.785 8.69081 24.9088 8.73239C24.95 8.77397 24.9912 8.89871 24.95 9.02346Z" fill="white"/>
<path d="M25.4852 7.73439C25.4439 7.85914 25.3202 7.90072 25.2377 7.85914C25.1553 7.81756 25.0728 7.69281 25.1553 7.56807C25.1965 7.44333 25.3202 7.40175 25.4439 7.44333C25.4852 7.52649 25.5264 7.65123 25.4852 7.73439Z" fill="white"/>
<path d="M26.0203 6.48635C25.9791 6.61109 25.8554 6.65267 25.7729 6.61109C25.6904 6.56951 25.6079 6.44477 25.6904 6.32002C25.7316 6.19528 25.8554 6.1537 25.9791 6.19528C26.0203 6.23686 26.0615 6.3616 26.0203 6.48635Z" fill="white"/>
<path d="M26.5594 5.23928C26.5181 5.36402 26.3944 5.4056 26.3119 5.36402C26.2295 5.32244 26.147 5.1977 26.2295 5.07295C26.2707 4.94821 26.3944 4.90663 26.5181 4.94821C26.5594 4.98979 26.6006 5.11453 26.5594 5.23928Z" fill="white"/>
<path d="M27.0945 3.95021C27.0533 4.07496 26.9296 4.11654 26.8471 4.07496C26.7646 4.03338 26.6822 3.90863 26.7646 3.78389C26.8059 3.65915 26.9296 3.61757 27.0533 3.65915C27.0945 3.70073 27.1358 3.82547 27.0945 3.95021Z" fill="white"/>
<path d="M16.9077 14.2207C16.9489 14.3455 17.0727 14.387 17.1551 14.3455C17.2376 14.3039 17.3201 14.1791 17.2376 14.0544C17.1964 13.9297 17.0727 13.8881 16.9489 13.9297C16.9077 13.9712 16.8665 14.096 16.9077 14.2207Z" fill="white"/>
<path d="M16.3706 12.9317C16.4118 13.0564 16.5355 13.098 16.618 13.0564C16.7005 13.0148 16.783 12.8901 16.7005 12.7653C16.618 12.6406 16.5355 12.599 16.4118 12.6406C16.3706 12.7238 16.3294 12.8485 16.3706 12.9317Z" fill="white"/>
<path d="M15.8354 11.6846C15.8767 11.8093 16.0004 11.8509 16.0829 11.8093C16.1653 11.7678 16.2478 11.643 16.1653 11.5183C16.1241 11.3935 16.0004 11.3519 15.8767 11.3935C15.8354 11.4351 15.7942 11.5598 15.8354 11.6846Z" fill="white"/>
<path d="M15.2983 10.3955C15.3396 10.5203 15.4633 10.5619 15.5458 10.5203C15.6282 10.4787 15.7107 10.3539 15.6282 10.2292C15.587 10.1045 15.4633 10.0629 15.3396 10.1045C15.2983 10.146 15.2571 10.3124 15.2983 10.3955Z" fill="white"/>
<path d="M14.7632 9.14846C14.8044 9.2732 14.9281 9.31478 15.0106 9.2732C15.0931 9.23162 15.1755 9.10688 15.0931 8.98213C15.0518 8.85739 14.9281 8.81581 14.8044 8.85739C14.7632 8.89897 14.7219 9.02371 14.7632 9.14846Z" fill="white"/>
<path d="M14.228 7.85939C14.2693 7.98414 14.393 8.02572 14.4754 7.98414C14.5579 7.94256 14.6404 7.81781 14.5579 7.69307C14.5167 7.56833 14.393 7.52675 14.2693 7.56833C14.228 7.65149 14.1868 7.77623 14.228 7.85939Z" fill="white"/>
<path d="M13.6909 6.61135C13.7321 6.73609 13.8559 6.77767 13.9383 6.73609C14.0208 6.69451 14.1033 6.56977 14.0208 6.44502C13.9796 6.32028 13.8559 6.2787 13.7321 6.32028C13.6909 6.36186 13.6497 6.4866 13.6909 6.61135Z" fill="white"/>
<path d="M13.1538 5.36428C13.195 5.48902 13.3187 5.5306 13.4012 5.48902C13.4837 5.44744 13.5662 5.3227 13.4837 5.19795C13.4425 5.07321 13.3187 5.03163 13.195 5.07321C13.1538 5.11479 13.1126 5.23953 13.1538 5.36428Z" fill="white"/>
<path d="M12.6186 4.07521C12.6599 4.19996 12.7836 4.24154 12.8661 4.19996C12.9485 4.15838 13.031 4.03363 12.9485 3.90889C12.9073 3.78415 12.7836 3.74257 12.6599 3.78415C12.6186 3.82573 12.5774 3.99205 12.6186 4.07521Z" fill="white"/>
<path d="M36.0014 27.277C36.1251 27.3186 36.1663 27.4433 36.1251 27.5265C36.0839 27.6096 35.9602 27.6928 35.8364 27.6096C35.7127 27.5681 35.6715 27.4433 35.7127 27.3186C35.7952 27.277 35.9189 27.2354 36.0014 27.277Z" fill="white"/>
<path d="M34.7651 26.737C34.8888 26.7785 34.93 26.9033 34.8888 26.9864C34.8475 27.0696 34.7238 27.1528 34.6001 27.0696C34.4764 27.028 34.4352 26.9033 34.4764 26.7785C34.5176 26.7369 34.6414 26.6954 34.7651 26.737Z" fill="white"/>
<path d="M33.5268 26.1959C33.6505 26.2375 33.6917 26.3623 33.6505 26.4454C33.6093 26.5286 33.4855 26.6117 33.3618 26.5286C33.2381 26.487 33.1969 26.3623 33.2381 26.2375C33.2794 26.1959 33.4031 26.1544 33.5268 26.1959Z" fill="white"/>
<path d="M32.2494 25.6559C32.3731 25.6975 32.4144 25.8222 32.3731 25.9054C32.3319 25.9885 32.2082 26.0717 32.0845 25.9885C31.9608 25.9054 31.9195 25.8222 31.9608 25.6975C32.0433 25.6559 32.167 25.6143 32.2494 25.6559Z" fill="white"/>
<path d="M31.0112 25.1149C31.1349 25.1565 31.1761 25.2812 31.1349 25.3644C31.0936 25.4475 30.9699 25.5307 30.8462 25.4475C30.7225 25.4059 30.6813 25.2812 30.7225 25.1565C30.7637 25.1149 30.8874 25.0733 31.0112 25.1149Z" fill="white"/>
<path d="M29.7338 24.5749C29.8575 24.6165 29.8988 24.7412 29.8575 24.8244C29.8163 24.9491 29.6926 24.9907 29.5689 24.9491C29.4451 24.9076 29.4039 24.7828 29.4452 24.6581C29.5276 24.5749 29.6513 24.5333 29.7338 24.5749Z" fill="white"/>
<path d="M28.4954 24.0338C28.6191 24.0754 28.6604 24.2001 28.6191 24.2833C28.5779 24.3665 28.4542 24.4496 28.3305 24.3665C28.2067 24.2833 28.1655 24.2001 28.2067 24.0754C28.248 24.0338 28.3717 23.9922 28.4954 24.0338Z" fill="white"/>
<path d="M27.2182 23.4938C27.3419 23.5354 27.3831 23.6601 27.3419 23.7433C27.3007 23.8264 27.1769 23.9096 27.0532 23.8264C26.9295 23.7433 26.8883 23.6601 26.9295 23.5354C26.9708 23.4938 27.1357 23.4522 27.2182 23.4938Z" fill="white"/>
<path d="M25.9799 22.9528C26.1036 22.9944 26.1449 23.1191 26.1036 23.2023C26.0624 23.2854 25.9387 23.3686 25.815 23.2854C25.6912 23.2023 25.65 23.1191 25.6912 22.9944C25.7325 22.9528 25.8974 22.9112 25.9799 22.9528Z" fill="white"/>
<path d="M0.783505 20.1668C0.783505 9.48046 9.40206 0.790038 20 0.790038C30.5979 0.790038 39.2165 9.48046 39.2165 20.1668C39.2165 30.8531 30.6392 39.5851 20 39.5851C9.36082 39.5851 0.783505 30.8531 0.783505 20.1668ZM0 20.1668C0 31.3105 8.98969 40.3335 20 40.3335C31.0103 40.3335 40 31.2689 40 20.1668C40 9.06465 31.0515 0 20 0C8.94845 0 0 9.06465 0 20.1668Z" fill="white"/>
<path d="M28.0442 28.3002L27.8984 28.4473L32.9436 33.5338L33.0894 33.3868L28.0442 28.3002Z" fill="white"/>
<path d="M7.09375 7.31867L11.9185 12.1836L12.0834 12.0589L7.21746 7.15234L7.09375 7.31867Z" fill="white"/>
<path d="M28.082 11.9756L28.2057 12.1419L32.9068 7.36009L32.7831 7.23535L28.082 11.9756Z" fill="white"/>
<path d="M7.2168 33.1403L7.38175 33.3066L11.9178 28.6912L11.7941 28.5664L7.2168 33.1403Z" fill="white"/>
<path d="M19.8763 18.4619H19.2578V21.1647C19.2578 21.7884 19.3402 21.9131 19.7938 21.9131H19.8763C21.1134 21.9131 21.3608 20.9568 21.3608 20.2083C21.4021 19.4183 21.1547 18.4619 19.8763 18.4619Z" fill="white"/>
<path d="M37.8557 20.1255L23.4639 18.088L27.0928 13.0567L22.1031 16.5911L19.9587 2.2041L17.9794 16.5911L12.9897 13.0567L16.4948 18.088L2.18555 20.1255L16.5773 22.2877L12.9484 27.319L17.9381 23.7846L19.9175 38.1716L22.0618 23.6599L27.0515 27.319L23.5464 22.2877L37.8557 20.1255ZM19.8763 22.2461H17.8557V22.0382C18.4742 22.0382 18.5979 21.8719 18.5979 20.9155V19.377C18.5979 18.4207 18.4742 18.2544 17.8557 18.2544V18.0465H19.8763C21.4845 18.0465 22.1855 19.0028 22.1855 20.1255C22.1855 21.3314 21.4845 22.2461 19.8763 22.2461Z" fill="white"/>
</svg>
